<svg xmlns="http://www.w3.org/2000/svg" viewBox="0 0 761.90476 788.28571"><title>air_france_logo-freelogovectors.net</title><path d="M518.87589,766.69336c-9.53127-.55083-24.77163-1.83881-27.86506-2.35494-25.38409-4.23516-46.26258-9.54022-66.52782-16.90434-7.5735-2.7521-26.13418-10.58822-28.21337-11.91131-.7663-.48769-4.37133-2.23708-8.01121-3.88753a69.22064,69.22064,0,0,1-7.66289-3.8587,65.70225,65.70225,0,0,0-6.26964-3.59275c-2.87358-1.50422-7.212-3.97358-9.641-5.4875-9.42623-5.87507-17.99566-11.47431-20.6622-13.50067-3.58876-2.72715-8.50928-6.38146-10.37759-7.70707-10.858-7.70413-30.87109-25.74273-44.833-40.40973-10.66995-11.20882-12.12464-12.88036-18.49039-21.24711-11.20551-14.7278-10.65206-13.95919-20.31479-28.21337-4.738-6.98935-6.64946-10.11962-13.53622-22.16713C219.64684,556.02,205.895,523.11594,198.44751,494.47309c-1.38663-5.33291-2.63191-9.87841-2.76731-10.10108-.42815-.70415-3.0891-13.99861-4.61259-23.04523-4.51453-26.80749-5.18285-35.23911-5.1628-65.13457.0179-26.70714,1.25155-44.10973,4.14816-58.51662.53924-2.682,1.79907-9.42187,2.79961-14.97747,2.14791-11.92641,8.71481-37.47148,10.83449-42.1459.34749-.76629,2.026-5.31178,3.73-10.10108,7.52681-21.15523,21.486-48.982,34.977-69.7243A341.71911,341.71911,0,0,1,265.29142,168.842c2.30571-2.8195,4.80944-5.95432,5.56383-6.96627,4.93713-6.62267,27.553-30.09007,35.00494-36.32291,1.14521-.95786,4.08737-3.47109,6.53812-5.58494A349.405,349.405,0,0,1,360.39337,85.088c8.59608-5.2529,32.338-17.99352,37.61783-20.18688,2.49044-1.03457,7.34941-3.11717,10.79771-4.628s8.15053-3.4642,10.4494-4.34086,5.12021-1.99058,6.26964-2.47538c2.39076-1.00836,11.25908-3.85479,17.41566-5.58984,2.29887-.64786,5.59042-1.60645,7.31458-2.13018A190.935,190.935,0,0,1,472.20192,40.266c25.67473-5.33437,46.37455-7.09239,75.93228-6.44884,48.41873,1.05418,87.65231,9.47789,129.22421,27.74535,5.17244,2.27287,10.18816,4.55784,11.146,5.07771s4.87639,2.56539,8.70783,4.54559c13.11031,6.77573,17.41656,9.17643,18.8184,10.49095a16.57791,16.57791,0,0,0,4.07423,2.43158,33.44442,33.44442,0,0,1,6.00215,3.69053c1.83192,1.4159,5.64121,4.06581,8.46513,5.88869,8.85593,5.71668,9.17337,5.95109,24.56263,18.1373,14.81378,11.73046,16.37115,13.11007,27.38354,24.25777,14.69744,14.878,28.04619,30.11287,33.19537,37.88577,1.01526,1.53258,3.80823,5.4511,6.20667,8.70783,4.16887,5.66075,6.59916,9.40843,13.89273,21.424,5.8601,9.65379,16.56967,29.91607,20.15765,38.13758,1.17041,2.682,3.03031,6.81971,4.13316,9.19486,3.33508,7.18322,9.367,23.62036,12.73142,34.69361,5.39086,17.7431,10.18807,43.08339,12.66037,66.87516,1.21748,11.71682,2.3202,44.36946,1.92911,57.12337-1.14783,37.42837-9.3712,81.46184-21.401,114.59505-1.73884,4.78931-3.16637,9.10861-3.17228,9.59847a23.63672,23.63672,0,0,1-2.01543,4.87639c-1.10263,2.19213-2.87762,6.18009-3.94441,8.86213-3.67443,9.23774-12.8975,27.32316-20.78268,40.75265a347.115,347.115,0,0,1-40.34094,56.23651c-8.46177,9.70226-29.98168,31.4064-35.68127,35.98668-1.96177,1.57647-8.093,6.50286-13.62516,10.94755s-12.25283,9.52785-14.93482,11.2959c-15.15728,9.99215-22.73169,14.90638-24.82025,16.10328-12.05117,6.90631-18.53025,10.32635-27.775,14.66117-5.93876,2.78468-11.58142,5.29184-12.53928,5.57148a22.12091,22.12091,0,0,0-3.83144,1.69658,110.42937,110.42937,0,0,1-10.4494,4.17432c-4.59772,1.64246-9.7702,3.546-11.49434,4.23019s-6.26963,2.09859-10.10108,3.14319-9.0503,2.49649-11.59744,3.22641c-10.07147,2.88591-33.16549,7.17422-46.57087,8.64762-17.90573,1.968-42.71916,2.81563-57.47168,1.96309Zm46.674-21.11284c14.64544-1.60342,38.6912-5.8089,47.972-8.39,29.10435-8.09446,42.25938-12.91531,63.48825-23.26624,11.8131-5.75992,11.89941-5.80678,23.9342-12.99048,15.45814-9.2272,20.71745-12.7736,34.00178-22.92762,19.7084-15.06442,44.307-39.13706,58.40063-57.1519,7.76294-9.92276,17.07016-22.6094,19.88026-27.09874,16.57409-26.47772,27.75957-48.46626,35.64985-70.08073,1.53858-4.21458,3.20247-8.76009,3.69756-10.10109,3.47463-9.41109,9.94567-33.91343,11.49867-43.53915.37089-2.29886,1.14979-6.53087,1.73085-9.40446,6.2932-31.12322,7.5742-72.91192,3.40618-111.11192-.98878-9.06218-6.03549-35.92282-8.24583-43.88746-1.9096-6.88114-8.14522-26.382-8.86749-27.73153-.40558-.75785-1.60189-3.91927-2.65848-7.02537-6.65579-19.567-26.089-56.50877-39.56136-75.20447-.87014-1.20752-2.45566-3.49417-3.52339-5.08144-2.11965-3.151-2.4248-3.53774-12.84023-16.27128-14.64106-17.89958-41.48966-43.0247-59.7918-55.95352-2.07223-1.46388-7.05934-4.98653-11.08237-7.82811s-8.5685-5.8396-10.10108-6.66227a17.05479,17.05479,0,0,1-3.13482-1.98178c-.60441-.84332-19.56579-11.43445-26.47181-14.78616-11.11779-5.39585-22.17933-10.30793-28.12718-12.49047-19.37569-7.10977-33.88956-11.41046-46.76016-13.85574-6.13031-1.16471-12.26822-2.41968-13.63975-2.78883-12.03409-3.239-57.0094-5.23171-79.14455-3.50662-53.5921,4.17665-105.643,22.73168-155.45285,55.41561-29.85672,19.59121-61.33078,49.12068-83.061,77.92911a292.37918,292.37918,0,0,0-16.97009,24.12666c-13.24764,20.62837-27.83014,49.846-34.07315,68.26938-.97376,2.87359-2.24251,6.3527-2.81944,7.73137-1.92649,4.60361-8.66451,30.11449-10.54136,39.91078-2.66021,13.885-6.112,38.41214-6.43233,45.7058-.93784,21.35355-.90168,37.46121.11423,50.87784.62475,8.25088,1.431,16.71487,1.79174,18.80891,4.08446,23.712,5.87658,32.38344,9.06523,43.86336,1.22385,4.40617,2.6428,9.57861,3.15323,11.49434s1.74559,5.67752,2.74482,8.35952,2.625,7.38422,3.61284,10.44939,2.83264,7.92413,4.09954,10.79771c9.25416,20.9903,13.8827,31.14614,14.60443,32.04482a9.9252,9.9252,0,0,1,1.32945,2.43819c.72943,2.073,7.74405,14.44271,12.24631,21.59542,2.17052,3.44831,4.8005,7.68033,5.84441,9.40446s2.67565,4.232,3.62611,5.573c5.9373,8.37695,11.42376,15.88762,13.53263,18.52553,1.341,1.6774,3.84886,4.811,5.573,6.96367,14.51945,18.12759,36.24868,39.53538,54.37543,53.571,4.67793,3.62217,12.04252,9.04084,15.63553,11.50425,1.14943.78808,3.18707,2.192,4.52808,3.11977s4.63256,2.99965,7.31457,4.60405,5.34661,3.31284,5.92133,3.79649c1.52966,1.2873,14.40966,8.28592,24.03361,13.0592,13.59865,6.74461,22.641,10.51789,39.70771,16.56962,3.53056,1.25192,20.74632,6.008,30.30325,8.37164,4.74224,1.17292,17.70368,3.44648,31.34819,5.49881,2.87358.43225,8.673,1.06174,12.88759,1.399,8.74063.69926,43.88239.25447,52.247-.6613Zm-60.95481-48.802a99.03935,99.03935,0,0,1-24.73024-5.45978l-6.96626-2.56227v-16.013c0-8.80715-.27525-16.77822-.61166-17.71346s-2.82732-5.63747-5.53534-10.44939c-4.8169-8.55915-4.9232-8.85486-4.901-13.63261.01248-2.686.39689-5.58287.85424-6.43746.48108-.89888,3.68542-2.97741,7.60254-4.93144a102.25652,102.25652,0,0,0,20.7035-13.46589c5.05539-4.16666,11.931-11.48638,13.63654-14.51729.90884-1.61511,1.013-1.23585,1.43488,5.2247.80241,12.28854,5.03772,21.64181,12.51395,27.63593,7.25125,5.81371,8.93361,7.73185,11.6912,13.32969,4.2435,8.61434,4.68482,11.51543,4.31246,28.34876-.27078,12.24015,1.38907,18.20081,7.39728,26.56377,1.3633,1.89765,2.28111,3.64793,2.03951,3.88952-.70045.70041-32.91942.85586-39.4416.19028Zm51.54528-7.13438c-8.124-7.79921-10.42363-14.35547-10.44472-29.77879-.01952-14.07879-.95508-19.66528-4.4924-26.82011-2.70466-5.47063-3.92535-7.03434-9.57868-12.27-11.41534-10.57215-13.73029-17.81053-13.854-43.31827-.05434-11.25768.07224-12.48035,2.091-20.161,2.26361-8.61255,4.23911-20.86516,4.23911-26.29238a8.23933,8.23933,0,0,1,1.56741-5.32117c2.46166-3.28967,8.40841-10.01868,8.85405-10.01868a18.34578,18.34578,0,0,1,2.708,4.0056c5.45243,9.475,21.00037,35.288,24.86134,41.27512,1.606,2.49045,3.75615,6.09548,4.778,8.0112S570.416,575.10331,572.48,578.36s4.75335,7.80091,5.97643,10.09819,3.28661,5.778,4.58553,7.735a24.004,24.004,0,0,1,2.36177,4.04617,84.19253,84.19253,0,0,0,4.52807,7.70145,84.63953,84.63953,0,0,1,4.52807,7.69831,20.23565,20.23565,0,0,0,2.16686,3.6956c1.19172,1.76585,3.56694,5.72987,5.27827,8.80886s4.79426,8.41955,6.851,11.86786,4.58046,7.837,5.608,9.75277,3.23918,5.75053,4.91457,8.52181,3.04627,5.14723,3.04627,5.27993a64.42594,64.42594,0,0,1-5.2534,4.36578c-10.66158,8.37057-24.76708,16.0921-36.6491,20.06207-7.67263,2.56358-18.82159,6.0158-19.40063,6.0073A48.7492,48.7492,0,0,1,556.14033,689.64411ZM451.99975,678.82429c-1.53258-1.04269-4.82414-3.13533-7.31458-4.65036a104.35793,104.35793,0,0,1-13.50177-9.56781c-1.48723-1.26646-3.411-2.77286-4.275-3.34759-7.6491-5.08808-35.8635-33.7436-35.8635-36.42415,0-.168,2.40661.268,5.348.96874,15.86811,3.78055,35.66973,4.80925,47.24727,2.45448,3.06516-.62341,5.80812-1.13355,6.09549-1.13363s.52247,1.68463.52247,3.74373c0,5.0888,1.43062,8.76148,5.55328,14.2563a36.92043,36.92043,0,0,1,4.53706,7.72493c1.33186,3.89182,1.37161,13.95647.07175,18.16233-1.64821,5.333-3.801,9.75379-4.73847,9.73075a12.4977,12.4977,0,0,1-3.68206-1.91777Zm264.59747-25.97051c.23853-6.297.64871-15.17688.91139-19.73306l.47774-8.284,7.30476.41367c11.64523.65946,13.91837-1.00153,14.58-10.65361l.38445-5.60941,8.17677.18623c13.7588.3134,13.12319,2.51906,13.69728-47.53264.37361-32.57107.29291-38.08421-.56784-38.79708a1.64,1.64,0,0,0-1.73145-.34832c-.76329.50589-4.73692,6.55443-11.76433,17.90744-2.29886,3.71388-4.87013,7.739-5.71387,8.9447s-2.81653,4.2298-4.38394,6.72025c-3.34086,5.30816-9.34093,14.6434-11.90519,18.52272-.99048,1.4984-3.68455,5.70248-5.98681,9.34234s-4.78343,7.51811-5.51374,8.61833c-2.37356,3.57591-8.47249,13.20843-11.52478,18.20179-5.27006,8.62151-7.13366,10.49408-12.664,12.725-6.0059,2.42276-12.35738,4.82791-21.72306,8.226-11.77892,4.27368-20.2992,9.19747-30.8554,17.83107a45.58873,45.58873,0,0,1-4.17976,3.18584c-.27106.09371-2.65925-3.51137-5.30719-8.01121s-5.81607-9.749-7.04037-11.66471-4.5032-7.40165-7.28643-12.191-5.601-9.49153-6.26177-10.4494a46.94,46.94,0,0,1-2.45652-4.16891c-.69036-1.33505-2.89051-4.94008-4.88921-8.01121s-4.47957-7.15126-5.513-9.067-3.3491-5.87588-5.1457-8.80035c-3.56235-5.79871-5.6771-9.29736-9.27767-15.34866-7.812-13.12948-12.91387-21.50209-14.69465-24.11546-1.11829-1.6411-2.91043-4.65134-3.98254-6.68947s-3.34178-5.86788-5.04372-8.51054c-3.95809-6.146-10.65106-17.48808-11.746-19.90505-.77682-1.71474-.6-2.18525,2.20446-5.86686a22.296,22.296,0,0,1,3.74569-4.20178c.38313-.10953,2.42078,2.047,4.52807,4.79232,10.60232,13.81229,23.298,26.0044,35.68344,34.268,3.93755,2.6271,8.50059,5.67033,10.14009,6.76268a15.25213,15.25213,0,0,0,3.62936,1.98613c1.63387,0,3.12561-12.57035,3.84412-32.39313.56989-15.72333,3.45436-68.58177,7.213-132.18042,1.12051-18.9592,1.41846-21.59721,2.5968-22.98868a13.82875,13.82875,0,0,1,2.1429-2.09591c.44647-.28824,2.64084-2.0369,4.87639-3.88591,20.11445-16.63677,42.19841-27.08944,74.42389-35.226,14.4348-3.64462,21.31454-4.88771,34.558-6.24425,5.21369-.534,10.3718-1.40133,11.46249-1.92731,3.136-1.51233,6.36412-6.2966,6.90572-10.23476.38225-2.77886.8147-3.59009,2.26655-4.2516.98686-.44961,2.02257-.56739,2.3017-.26168s1.72048,2.14956,3.203,4.09747,4.57633,5.83265,6.87524,8.63276,5.12018,6.27368,6.26963,7.719,3.42216,4.25025,5.05055,6.23311,2.96066,4.33986,2.96066,5.23782c0,1.55637-1.37119,9.48983-5.23473,30.28707-3.99349,21.49665-6.63628,36.33025-10.73577,60.25819-1.18155,6.89662-2.49112,13.83614-2.91015,15.42123a39.18934,39.18934,0,0,0-.98634,5.573c-.12344,1.48008-.93427,6.69351-1.80178,11.58537l-1.57736,8.89432-8.40492-.3853c-4.62268-.21192-10.60064-.55049-13.28425-.75233l-4.87932-.367-3.82851-7.73139a88.0177,88.0177,0,0,0-5.2645-9.5352,50.10444,50.10444,0,0,1-3.2449-4.93868,77.47366,77.47366,0,0,0-6.75426-8.8077c-8.402-9.63778-11.90188-8.47681-11.90188,3.948,0,17.04311,7.10254,38.20292,20.96721,62.46559l2.06708,3.61727-4.05624,5.78718c-4.94513,7.05539-5.484,7.83577-10.24947,14.84328-2.08452,3.06518-5.66979,8.23762-7.96737,11.49434s-5.58793,7.95895-7.31177,10.4494-4.69985,6.72246-6.61323,9.40445-4.341,6.28707-5.39469,8.01121a68.4085,68.4085,0,0,1-4.20531,5.97762c-2.57774,3.20085-3.26982,6.02894-1.563,6.38711,1.28794.2703,9.9132-6.77646,14.5937-11.92292,1.78906-1.96717,6.35663-7.51824,10.15028-12.3357s10.0322-12.595,13.86364-17.2833,7.59325-9.37371,8.35952-10.412,4.54193-5.64334,8.39026-10.23345,9.64779-11.58923,12.88759-15.55359c8.0652-9.86876,10.37724-12.6386,13.7159-16.43153l2.87137-3.262,2.92563,1.95637c4.14068,2.76886,17.06866,10.88224,21.232,13.32485a22.73663,22.73663,0,0,1,4.25438,3.00714c.92406,1.17347-1.52506,30.14852-7.70579,91.16325-1.339,13.21847-2.63306,26.11762-2.87563,28.66479-.59347,6.23214-4.19906,11.84639-10.66688,16.60929-5.36445,3.95042-7.55553,5.62952-17.52544,13.43026-4.03039,3.15348-9.20284,7.12018-11.49434,8.81494a57.22843,57.22843,0,0,0-5.22066,4.2275,42.951,42.951,0,0,1-4.2662,3.53662c-1.76656,1.31472-5.64886,4.4077-8.6273,6.87324l-5.41535,4.48279.43365-11.44906ZM765.073,371.624a10.16225,10.16225,0,0,0,2.7854-4.11487c.89251-2.52417.86028-3.0342-.34831-5.50992-3.30069-6.76151-12.36946-6.281-15.33323.81236-1.46319,3.502.65934,8.5564,4.24864,10.11733C758.49094,373.82712,763.01893,373.14386,765.073,371.624ZM415.99126,615.99652a67.33455,67.33455,0,0,1-8.48505-1.70393c-3.6233-1.05332-3.92819-1.32259-5.7891-5.11215-1.81084-3.68765-1.95936-4.59913-1.90042-11.66318.07157-8.57773,1.44164-13.07076,6.14755-20.1605a47.41449,47.41449,0,0,0,3.85188-7.26054c1.58332-4.01691,3.51942-12.63367,3.52029-15.66729l.00057-1.98737,8.53368.2458c9.8062.28245,10.31353.51431,14.93831,6.82783,4.45687,6.0843,6.51647,12.08215,7.48828,21.8069,1.02933,10.30037,7.82676,19.56894,16.98744,23.163,4.79724,1.88214,4.99937,2.0469,3.47718,2.83434-4.85521,2.51175-16.40916,6.7433-20.86952,7.64334-6.28728,1.26867-21.58934,1.83561-27.90112,1.03371ZM379.34245,600.635c-6.85623-4.57841-16.936-14.63608-21.77809-21.73024-5.53669-8.11189-7.61213-11.905-18.78483-34.33114-9.19305-18.45252-12.13221-22.9979-20.42354-31.58472-11.73026-12.14832-26.70884-18.4896-42.95105-18.1835-3.63988.06854-6.97325.0875-7.40749.04209-1.28943-.13491-1.49246-2.268-.89259-9.37763.49944-5.91945.90749-7.38256,3.38943-12.15316,2.09863-4.03384,3.679-6.0636,6.16749-7.92145,7.03779-5.25421,11.63144-6.5981,25.86025-7.56561,6.38426-.43411,10.59229-1.03882,11.53727-1.658a8.5037,8.5037,0,0,0,2.39134-4.00526c1.19014-3.99072,7.05581-14.58264,10.66994-19.26722a34.135,34.135,0,0,1,13.72-11.04853c5.14161-2.44368,5.23324-2.459,13.23591-2.21692,7.29786.22075,8.45295.441,12.23821,2.33368,3.95413,1.97707,4.17564,2.22151,4.10368,4.52807a14.39454,14.39454,0,0,1-2.25822,5.92132,73.13625,73.13625,0,0,0-3.63439,6.618,165.44225,165.44225,0,0,0-6.93082,20.82578c-1.21329,5.26986-1.03869,18.8363.32367,25.15156,1.56063,7.23426,6.53355,20.34057,9.51554,25.07855.60286.95787,2.42778,3.936,4.05536,6.618,6.3333,10.4363,10.61589,15.79063,21.76519,27.212l8.20289,8.40305-.34532,5.52948A70.60047,70.60047,0,0,1,400.007,566.73c-.82376,3.62842-4.68613,9.93433-9.47018,15.46146-3.64563,4.21186-5.76151,10.37882-5.76151,16.79242,0,2.4501-.27777,4.45469-.61725,4.45469a27.0092,27.0092,0,0,1-4.81559-2.80356Zm95.03137-3.54431c-3.83749-.90089-10.33415-4.50924-12.80532-7.11232-3.01608-3.177-7.56014-12.207-8.53291-16.95654-2.45209-11.97251-3.4755-15.02718-6.61835-19.7547a37.0433,37.0433,0,0,0-5.94262-6.97635c-2.178-1.725-2.75347-2.64491-2.745-4.38805.01477-3.04728.45074-3.45826,5.214-4.91487,6.72594-2.05676,14.08626-5.96282,17.73409-9.41134a81.92352,81.92352,0,0,0,12.96389-16.80867c2.51267-4.68739,7.46333-9.79048,11.49183-11.84567,3.8097-1.94357,13.82194-2.79905,15.03908-1.285,1.47331,1.83269,5.67661,15.62712,6.76643,22.2062,2.59064,15.63906,2.08209,27.05755-1.76842,39.70771-4.21784,13.85689-14.196,29.29807-23.50849,36.37935C478.97258,597.97548,478.47819,598.05418,474.37382,597.09067Zm-69.7911-59.40378c-11.3838-5.70427-18.29194-13.75344-21.58393-25.149-.98035-3.39359-1.13314-5.88064-.82006-13.34816.34057-8.12256.66626-9.98883,2.8334-16.236a37.62221,37.62221,0,0,1,6.37336-12.18267c3.64988-4.76524,9.139-9.277,13.13494-10.79626,1.51773-.57707,1.56288-.464,1.61215,4.03643.10068,9.19615,3.474,17.97265,10.20806,26.55875,5.33839,6.80657,6.1448,10.05079,4.604,18.52187a11.7484,11.7484,0,0,1-2.69442,6.22342c-3.013,3.24142-6.39273,12.89159-6.91155,19.73451l-.4399,5.802-6.31607-3.16492Zm32.22191-17.3717-4.04909-2.87987.566-3.49819c1.9184-11.85761-.31216-21.89492-6.43744-28.968-4.46581-5.15684-5.88419-8.96-5.88419-15.77771,0-5.90819.98549-8.743,4.13383-11.89138l2.243-2.243,7.78345.01378c19.4312.0344,34.79584,5.20892,46.58894,15.69017,4.23167,3.7609,11.09968,12.13819,10.60612,12.93682a3.39537,3.39537,0,0,1-2.304.61755c-2.70385,0-9.03593,1.952-11.928,3.67706a30.83039,30.83039,0,0,0-4.87638,3.88735c-3.47391,3.46651-9.75277,11.41143-9.75277,12.34063a11.88812,11.88812,0,0,1-1.957,3.50159c-1.07636,1.49427-2.68142,4.01347-3.56683,5.59822-2.70075,4.83391-11.05375,10.14407-15.63671,9.94054-.8139-.03615-3.30191-1.36167-5.52892-2.94562ZM589.47374,518.062c-10.35707-8.60158-23.65025-23.3517-30.95828-34.35137-8.66631-13.04393-17.71067-29.2058-22.00976-39.33036-5.29486-12.46963-10.78991-30.021-15.08685-48.1881-5.16145-21.82253-7.07766-57.41014-5.00734-92.99963.81595-14.02765,1.43881-25.471,3.12793-57.47169.6067-11.49433,1.41338-24.19035,1.79263-28.21337s1.162-16.719,1.73948-28.21337,1.506-28.26561,2.06348-37.26951,1.33925-22.7971,1.73725-30.65157c.73836-14.57183,1.16916-20.77176,1.85122-26.646l.38426-3.309,10.55814.00627c17.62339.01017,46.32942,2.67184,56.18724,5.20971,2.10729.54251,7.59322,1.80867,12.191,2.81366s8.82973,1.95641,9.40446,2.11425c1.17687.32322,1.17966-.7963-.05713,23.29434-.44258,8.62075-.92163,19.27913-1.06458,23.68529s-.717,15.06456-1.2758,23.68531-1.3509,22.88418-1.76029,31.69651-.90012,16.723-1.09044,17.57938-.64479,7.28271-1.01,14.28084-.98656,17.89632-1.38071,24.2182c-1.71042,27.43107-2.17173,35.68222-3.135,56.07843-.561,11.87747-1.06939,23.94653-1.12985,26.82011a43.49878,43.49878,0,0,1-.6675,7.31458,101.1554,101.1554,0,0,0-.92414,11.84265c-.20161,5.364-.84946,18.06-1.43979,28.21337s-1.393,24.41675-1.78379,31.69649-1.33383,22.79708-2.09566,34.483c-1.2687,19.46031-1.984,31.66109-3.33483,56.88042l-.49071,9.16146-5.33442-4.43023Zm-85.7375-74.67063c-8.7566-.26212-8.25255.18866-9.97851-8.92386-.91119-4.81082-1.08916-8.37347-.781-15.635.55564-13.09162,2.86578-22.94879,6.66024-28.4185.71912-1.03661,2.3553-3.55659,3.63594-5.6s2.40418-3.454,2.49672-3.13482.95489,5.12588,1.91632,10.68146c1.82309,10.53474,5.01436,22.31865,10.86712,40.12758,1.90171,5.7865,3.45764,10.72386,3.45764,10.97187,0,.43348-1.71.42706-18.27447-.06875ZM476.73,418.139c-1.72415-.29133-8.30726-.76316-14.62915-1.04851s-12.24616-.80373-13.165-1.152l-1.67069-.63314.47407-8.38826c.801-14.17376,5.03434-30.77555,10.75368-42.17267,9.6419-19.21371,24.25528-34.62273,40.52917-42.73576a26.9936,26.9936,0,0,0,4.28476-2.572c.63246-.555,1.29614-.75362,1.47482-.4413s-.066,4.79985-.54386,9.97232-1.26061,16.4578-1.73956,25.07855l-.87085,15.67409-2.93881,3.13482c-2.72642,2.90828-4.148,4.85234-8.91428,12.191-3.96818,6.10974-8.16788,21.02785-8.16788,29.01378,0,3.39737-.25093,4.749-.87079,4.69067C480.25666,418.70553,478.45415,418.4303,476.73,418.139Zm-51.202-21.2842c-.38315-.14979-5.81007-.56237-12.05984-.91685s-11.51006-.79136-11.68955-.97088c-.37207-.37206.6375-7.82941,2.239-16.53884,3.52837-19.18807,12.11743-40.50795,22.66228-56.25258,5.42927-8.10649,6.70685-9.89038,9.85347-13.75837,5.38463-6.61908,15.75154-16.95109,20.69111-20.62143,2.49045-1.85052,5.90768-4.39409,7.59386-5.65241,3.52956-2.63393,6.444-4.35166,17.27393-10.18109,7.62413-4.10384,24.207-10.48866,25.05049-9.64513.42661.42661-.83447,30.92711-1.57485,38.08885l-.39609,3.83145-4.45483,2.00824c-11.26954,5.08031-22.64219,13.206-33.05055,23.61434-11.38932,11.38931-19.93156,25.3-26.17705,42.62819-2.87473,7.976-5.86033,19.909-5.86033,23.423,0,1.17793-.52477,1.31975-4.70223,1.2709A35.08538,35.08538,0,0,1,425.528,396.85476Zm-53.64024-26.46755c-7.66289-.48587-15.12229-.913-16.57644-.94928l-2.64392-.0659.4677-2.61235c.70523-3.9391,4.32671-17.907,6.2764-24.20777,4.14914-13.4088,16.09584-37.47562,25.58947-51.55036,7.40033-10.97133,21.00265-26.83247,30.43272-35.48647,18.50895-16.98565,47.78059-34.19214,71.74575-42.17366,8.36651-2.78644,22.9396-6.51927,23.48036-6.01438.07885.07362-.13385,4.82382-.47266,10.556s-.82327,14.65718-1.07655,19.83334l-.46052,9.41122-7.1278,1.94453a70.93329,70.93329,0,0,0-9.1679,3.01478c-1.12207.58865-4.07774,1.83843-6.56819,2.77726-5.01669,1.89121-19.1292,9.55946-25.07855,13.62682a151.50011,151.50011,0,0,0-22.98867,18.747c-10.58561,10.477-15.02131,16.15347-26.89238,34.41509-3.319,5.10577-9.34972,18.14662-13.42684,29.0344-1.96254,5.24088-3.56825,9.89445-3.56825,10.34125a45.57728,45.57728,0,0,1-1.4611,5.62276l-1.4611,4.81038-2.5445-.09567c-1.39947-.05255-8.81414-.49313-16.477-.979ZM789.36624,349.344c.14593-2.58622.47425-7.83705.72966-11.66849l.46431-6.96627,8.0112-1.53588c4.40617-.84474,10.16282-2.037,12.79252-2.6494a27.15931,27.15931,0,0,1,4.98847-.90229c.114.11616.72171,2.70665,1.35056,5.75663,1.5507,7.52136,2.48607,18.03007,1.65134,18.55371a67.09321,67.09321,0,0,1-8.80558,1.27535c-4.4802.47383-11.04224,1.30643-14.58213,1.8502s-6.53291.98869-6.651.98869a25.94719,25.94719,0,0,1,.05085-4.70223ZM319.29241,341.8205c-9.387-.47621-17.17063-.89829-17.29686-.938-.90539-.28464,7.41025-25.57908,12.27621-37.34167,6.83407-16.52015,21.61776-41.35633,33.09293-55.59516,9.73789-12.08314,13.246-16.02656,22.43314-25.21678,9.73175-9.735,19.21789-18.087,25.73627-22.65933a53.51844,53.51844,0,0,0,4.67332-3.60613,20.31332,20.31332,0,0,1,3.917-2.56144,14.54687,14.54687,0,0,0,3.57115-2.43554,21.61382,21.61382,0,0,1,4.13316-2.96423c1.78742-1.04495,6.0196-3.704,9.40484-5.9091,8.61845-5.61385,29.5062-15.745,41.92-20.33246a280.91572,280.91572,0,0,1,43.021-11.33539,51.27622,51.27622,0,0,1,7.77208-.92042c.14916.153-.15744,8.272-.6813,18.04215s-.96489,19.48976-.98,21.59905l-.02744,3.83509-8.53368,1.99715c-16.81438,3.93509-29.77074,8.39513-42.803,14.73425-3.52236,1.71333-6.585,3.11516-6.80595,3.11516a20.15122,20.15122,0,0,0-3.34846,1.89268c-3.5639,2.289-6.291,3.90853-9.65781,5.7355-1.39217.75544-5.15058,3.16739-8.352,5.35991-16.326,11.18093-33.17037,26.39435-43.802,39.56087-2.1073,2.60973-5.18277,6.35238-6.83437,8.317-5.5696,6.62513-12.97828,17.856-20.7381,31.43707-4.88,8.54092-14.92171,32.70618-14.92171,35.90905C346.46084,343.1568,345.77377,343.1639,319.29241,341.8205Zm299.15814-6.96409c.26158-3.43035.88346-14.68611,1.3819-25.01282l.90625-18.77584,3.40545-2.95645c1.873-1.626,3.60616-2.73814,3.85145-2.47127.6686.72749,13.83486,38.60437,13.83486,39.80046,0,.26549-1.01883,1.009-2.264,1.65236s-2.891,1.56346-3.65728,2.04475c-2.01186,1.26363-14.80255,9.74771-16.49856,10.94353-1.42759,1.00656-1.433.977-.96-5.2247Zm26.91793-33.5796c-3.57471-10.24911-6.62462-19.5752-6.77756-20.72463-.308-2.31549-.02717-2.53716,11.271-8.89583,4.917-2.76731,13.54927-6.77827,14.58792-6.77827.20307,0,.37131.5486.37382,1.2191.007,1.07815,2.24069,11.1055,6.33214,28.38753,2.40588,10.16212,3.38449,15.1617,3.06794,15.67386a36.12918,36.12918,0,0,1-6.0778,2.78927c-3.17074,1.25568-7.87318,3.33621-10.44982,4.6234a38.28615,38.28615,0,0,1-5.25654,2.34033c-.31439,0-3.49644-8.38564-7.07112-18.63476Zm143.78857,16.43952c-.45363-1.49706-2.744-5.32432-7.04667-11.77472a11.00212,11.00212,0,0,1-1.6513-3.21321c0-.71006,15.41376-15.03195,16.52371-15.35318,1.26982-.36751,12.14372,18.26267,14.41231,24.69242l1.03,2.9192-2.57293.43958c-1.41511.24176-5.08078,1.01552-8.14595,1.71944s-7.03111,1.48839-8.81324,1.74326c-2.98485.42689-3.27921.33446-3.73594-1.17279Zm-501.90946-1.04458c-2.10729-.10757-11.1199-.56471-20.028-1.01588-11.19589-.567-16.19656-1.06585-16.19656-1.61571,0-1.47563,9.00025-26.9775,10.374-29.39443.40861-.71886,2.01866-4.28512,3.5779-7.925s3.11679-7.08816,3.46122-7.66289,2.06171-3.86627,3.81615-7.31458A372.47478,372.47478,0,0,1,293.89571,225.867c2.05739-2.87358,4.58315-6.47863,5.61279-8.0112s2.8458-3.915,4.03589-5.2942,2.94751-3.53976,3.90537-4.80119c2.93434-3.86429,9.81482-12.04236,12.60583-14.98317,7.98338-8.41183,17.332-17.49929,25.37122-24.66246a187.74789,187.74789,0,0,1,20.53957-16.493c2.87359-2.08325,5.69493-4.21716,6.26964-4.742a47.66187,47.66187,0,0,1,4.87639-3.2761,21.93142,21.93142,0,0,0,4.05681-2.85122,34.32142,34.32142,0,0,1,5.573-3.43853c2.94121-1.6,6.28809-3.58936,7.43752-4.42076a85.18455,85.18455,0,0,1,8.0112-4.51423c3.25673-1.65142,6.2348-3.23221,6.618-3.51286,1.10011-.80581,14.46179-6.82834,24.38193-10.9897,10.72352-4.49838,30.98629-11.46274,38.93729-13.38285,16.32533-3.94245,23.35418-5.33816,33.35309-6.6229,4.685-.602,9.3846-1.2363,10.44341-1.40963,1.68918-.27653,1.88436-.125,1.59283,1.23673-.18272.85353-.66061,8.29173-1.062,16.52933s-.91774,17.53489-1.14741,20.66062l-.4177,5.68315-2.88364.315c-4.38815.47937-18.09405,3.1708-25.6327,5.03348a280.26082,280.26082,0,0,0-66.79876,26.69439,302.65953,302.65953,0,0,0-33.98677,23.043c-3.58855,2.91519-7.99647,6.43916-9.7954,7.831-4.08558,3.16112-24.24137,23.41511-29.166,29.30806-14.5734,17.43912-21.6605,27.69087-31.93513,46.19524-1.4928,2.6885-3.25141,5.82332-3.908,6.96627-3.1111,5.41542-7.469,15.41556-11.90885,27.32709l-2.91973,7.83337-2.4382-.12518c-1.341-.06881-4.16234-.21321-6.26963-.32078ZM682.4033,293.645c-1.63149-7.20105-3.405-14.817-3.9411-16.92425-2.19091-8.61123-3.35928-14.5861-3.02351-15.46112.20026-.52181,3.97252-1.79954,8.62654-2.92192,4.54882-1.09705,9.838-2.398,11.75374-2.891,3.83234-.98629,15.68532-2.63221,16.08406-2.23347a66.58593,66.58593,0,0,1-.38212,8.22191c-.3481,4.38408-.97325,13.61375-1.38913,20.51034-1.18257,19.61054-1.2219,19.85386-3.20693,19.85386a25.95716,25.95716,0,0,0-4.65205.71474c-9.30046,2.23767-14.27459,3.46295-15.51,3.82051-1.29014.37342-1.61277-.56577-4.35957-12.68955Zm38.15611,3.10376c.00974-2.89624,1.42774-21.49273,2.74862-36.05042.365-4.023.67728-7.59764.694-7.94362.03763-.78453,14.27-.07051,20.61358,1.03417l4.64636.80913-.39045,2.52769c-.21472,1.39023-.58455,4.25185-.82188,6.35914s-1.01671,7.59322-1.73209,12.191-1.67205,11.416-2.1261,15.15163c-.6641,5.46355-1.04716,6.79357-1.95863,6.79957-.6232.00419-5.52182.47374-10.88585,1.04364s-9.9879,1.03678-10.27524,1.03748-.51788-1.331-.51231-2.95939Zm50.84357-3.10694c0-.32821-3.13482-4.02417-6.96626-8.21324-7.62042-8.33171-7.60486-8.29176-5.98039-15.32578.53089-2.29886,1.18419-5.83684,1.45176-7.86215.4436-3.3576.61869-3.64209,1.98512-3.22554,4.01627,1.22442,10.31189,4.8719,16.90331,9.79323,4.683,3.49651,10.71879,9.13989,10.71879,10.022a99.915,99.915,0,0,1-8.029,7.69956c-7.45829,6.74228-10.08331,8.59374-10.08331,7.11189Zm121.268,107.3687c.03342-.81154.19852-.97659.42089-.42088a1.40114,1.40114,0,0,1-.055,1.3352c-.23147.23147-.39618-.18-.36595-.91432Z" transform="translate(-159.04762 -5.85714)" style="fill:#0e224a"/><rect width="761.90476" height="788.28571" style="fill:none"/></svg>